<svg id="Layer_1" data-name="Layer 1" xmlns="http://www.w3.org/2000/svg" viewBox="0 0 263 48.63"><path d="M4.74,6.63H8.13V37.38H4.74Z" style="fill:#f4f3f3"/><path d="M17.26,37.38h-3.2V19.53c0-1.37,0-2.71.12-4a27.33,27.33,0,0,1,10.61-2c8,0,8.83,3.78,8.83,8.55V37.38h-3.2V22.69c0-4.44-.79-6.44-6.69-6.44a19.13,19.13,0,0,0-6.38,1.15c-.06,1.1-.09,2.57-.09,3.68Z" style="fill:#f4f3f3"/><path d="M44.53,13.87h5.28v2.54H44.53v21H41.32v-21H37.15V13.87h4.17V11.35c0-4.46,2.27-6.88,6.78-6.88a14.17,14.17,0,0,1,2,.16L49.86,7H48.75c-2.61,0-4.22,1.16-4.22,4.21Z" style="fill:#f4f3f3"/><path d="M52.34,25.62c0-8.53,2.56-12.06,10.28-12.06,8,0,10.11,4.15,10.11,10.58,0,.66,0,1.53-.06,2.23-2.7.45-8.27,1-11.55,1.11l-5.57.22c.39,4.82,1.84,7.29,7.77,7.29a60.62,60.62,0,0,0,8.3-.66l.29,2.59a58.48,58.48,0,0,1-9.84.78C54.37,37.7,52.34,32.59,52.34,25.62ZM61.68,25c2.06-.1,5.6-.37,7.77-.65,0-.48,0-1.16,0-1.65,0-4-1.74-6.52-6.88-6.52-5.91,0-7.15,3-7.15,9.11Z" style="fill:#f4f3f3"/><path d="M92.53,37a29,29,0,0,1-6.15.69C78.46,37.7,77,32.13,77,25.37c0-7.7,1.74-11.81,10.22-11.81a19.77,19.77,0,0,1,5.27.67l-.26,2.45a25.62,25.62,0,0,0-3.92-.39c-7.35,0-8.07,2.57-8.07,9.08,0,6.11.54,9.55,8,9.55a21.67,21.67,0,0,0,4-.5Z" style="fill:#f4f3f3"/><path d="M103,7.23v6.64h5.24v2.54H103v14.7c0,3.35,1.15,4,4,4,.43,0,.86,0,1.28-.07l.26,2.45a17.07,17.07,0,0,1-2.55.25c-4.34,0-6.19-1.88-6.19-6.15V16.41h-4.3V13.87h4.3V7.75Z" style="fill:#f4f3f3"/><path d="M112.14,6.82c0-1.72.44-2.35,1.93-2.35S116,5.1,116,6.82s-.41,2.33-1.94,2.33S112.14,8.55,112.14,6.82Zm.33,7h3.21V37.38h-3.21Z" style="fill:#f4f3f3"/><path d="M120.68,25.62c0-8.79,2.74-12.06,10.32-12.06S141.32,17,141.32,25.62,138.59,37.7,131,37.7,120.68,34.42,120.68,25.62Zm17.42,0c0-7.14-1.69-9.36-7.1-9.36s-7.09,1.9-7.09,9.36S125.71,35,131,35,138.1,32.77,138.1,25.62Z" style="fill:#f4f3f3"/><path d="M149.64,37.38h-3.2V19.53c0-1.37,0-2.71.12-4a27.33,27.33,0,0,1,10.61-2c8,0,8.83,3.78,8.83,8.55V37.38h-3.21V22.69c0-4.44-.79-6.44-6.69-6.44a19.07,19.07,0,0,0-6.37,1.15c-.07,1.1-.09,2.57-.09,3.68Z" style="fill:#f4f3f3"/><path d="M171.55,35.37c0-1.73.43-2.35,1.92-2.35s1.94.62,1.94,2.35-.41,2.33-1.94,2.33S171.55,37.1,171.55,35.37Z" style="fill:#f4f3f3"/><path d="M186,28.4c0,3.91.72,4.77,5,4.77h7.73v4.1c-2.27.1-5.61.19-7.61.19-5.45,0-10.5-.29-10.5-7.26V6.63H186Z" style="fill:#fff"/><path d="M204.34,10.57c-2.36,0-3-.75-3-3.05s.71-3,3-3,3,.76,3,3.05S206.72,10.57,204.34,10.57Zm-2.51,26.81V13.87h5V37.38Z" style="fill:#fff"/><path d="M232.08,37.38h-5V22.85c0-3.75-.66-5.33-5.48-5.33a10.47,10.47,0,0,0-4.29.79,29,29,0,0,0-.14,3.15V37.38h-5V19.93c0-1.54.07-2.89.2-4.32a24.16,24.16,0,0,1,10.61-2c8.28,0,9.12,3.86,9.12,8.75Z" style="fill:#fff"/><path d="M241.35,28.13c.26,4.52,2.63,5.58,6.27,5.58a65.61,65.61,0,0,0,8.43-.61l.42,3.74a58.83,58.83,0,0,1-10.14.86c-7.88,0-10-5.11-10-12.08,0-8.53,2.64-12.06,10.47-12.06,8.46,0,10.27,4.46,10.27,11.47,0,.56,0,1.14-.07,1.74-2.69.47-8.3,1-11.55,1.17Zm4.59-3.65c1.73-.08,4.45-.3,6.07-.52a10.28,10.28,0,0,0,.06-1.1c0-3.58-1.32-5.53-5.23-5.53-5,0-5.62,3.13-5.62,7.38Z" style="fill:#fff"/></svg>